<svg width="145" height="31" fill="none" xmlns="http://www.w3.org/2000/svg">
  <path d="M8.242 6.592h3.328l2.106 6.11 2.132-6.11h3.302l-3.172 8.398 2.34 5.876L23.504 6.54h3.9L20.02 25h-3.094l-3.25-7.748L10.452 25H7.358L0 6.54h3.848L9.1 20.866l2.288-5.876-3.146-8.398ZM34.227 25.26c-1.092 0-2.08-.182-2.964-.546a6.96 6.96 0 0 1-2.262-1.534 7.318 7.318 0 0 1-1.456-2.236 7.34 7.34 0 0 1-.494-2.678c0-1.3.286-2.487.858-3.562a6.712 6.712 0 0 1 2.496-2.574c1.092-.659 2.375-.988 3.848-.988 1.49 0 2.765.33 3.822.988a6.394 6.394 0 0 1 2.418 2.574 7.1 7.1 0 0 1 .858 3.432 8.5 8.5 0 0 1-.026.65c-.017.208-.035.381-.052.52h-10.53c.07.693.269 1.3.598 1.82.347.52.78.919 1.3 1.196.537.26 1.11.39 1.716.39a4.03 4.03 0 0 0 1.95-.494c.624-.347 1.049-.797 1.274-1.352l2.99.832a5.594 5.594 0 0 1-1.43 1.846 6.839 6.839 0 0 1-2.158 1.274c-.832.295-1.75.442-2.756.442Zm-3.562-8.164h7.124c-.07-.693-.269-1.291-.598-1.794a3.18 3.18 0 0 0-1.248-1.196 3.47 3.47 0 0 0-1.742-.442 3.42 3.42 0 0 0-1.716.442 3.428 3.428 0 0 0-1.248 1.196c-.312.503-.503 1.1-.572 1.794Zm21.336 8.164c-1.04 0-1.967-.234-2.782-.702a5.126 5.126 0 0 1-1.924-1.924V25h-3.042V6.02h3.484v7.748a5.457 5.457 0 0 1 1.898-1.924c.798-.468 1.725-.702 2.782-.702.884 0 1.69.19 2.418.572a5.494 5.494 0 0 1 1.872 1.534 6.956 6.956 0 0 1 1.222 2.262c.295.85.442 1.76.442 2.73s-.164 1.88-.494 2.73a7.205 7.205 0 0 1-1.326 2.262 6.207 6.207 0 0 1-2.028 1.508c-.762.347-1.603.52-2.522.52Zm-.962-2.964c.555 0 1.058-.104 1.508-.312.468-.225.867-.52 1.196-.884.347-.364.607-.789.78-1.274a4.358 4.358 0 0 0 .286-1.56c0-.745-.156-1.43-.468-2.054a3.764 3.764 0 0 0-1.248-1.534c-.52-.381-1.135-.572-1.846-.572-.502 0-.988.121-1.456.364-.45.225-.858.537-1.222.936a4.9 4.9 0 0 0-.832 1.352v3.25a2.7 2.7 0 0 0 .494.936c.243.277.52.52.832.728.312.19.633.347.962.468a3.52 3.52 0 0 0 1.014.156Z" fill="#2196F3"/>
  <path d="M72.848 11.376c-.121-.121-.347-.286-.676-.494a6.64 6.64 0 0 0-1.17-.598c-.45-.19-.945-.355-1.482-.494a5.846 5.846 0 0 0-1.638-.234c-.97 0-1.707.182-2.21.546-.485.364-.728.875-.728 1.534 0 .503.156.901.468 1.196.312.295.78.546 1.404.754.624.208 1.404.433 2.34.676 1.213.295 2.262.659 3.146 1.092.901.416 1.586.97 2.054 1.664.485.676.728 1.577.728 2.704 0 .988-.182 1.837-.546 2.548a4.57 4.57 0 0 1-1.508 1.69 6.925 6.925 0 0 1-2.184.962c-.815.19-1.681.286-2.6.286s-1.837-.095-2.756-.286a15.15 15.15 0 0 1-2.652-.806 12.7 12.7 0 0 1-2.34-1.3l1.586-3.094c.156.156.433.364.832.624.399.243.884.494 1.456.754.572.243 1.196.45 1.872.624a8.24 8.24 0 0 0 2.054.26c.97 0 1.707-.165 2.21-.494.503-.33.754-.797.754-1.404 0-.555-.2-.988-.598-1.3-.399-.312-.953-.58-1.664-.806a52.762 52.762 0 0 0-2.522-.78c-1.161-.33-2.132-.693-2.912-1.092-.78-.416-1.36-.936-1.742-1.56-.381-.624-.572-1.404-.572-2.34 0-1.265.295-2.323.884-3.172.607-.867 1.421-1.517 2.444-1.95 1.023-.45 2.158-.676 3.406-.676.867 0 1.681.095 2.444.286.78.19 1.508.442 2.184.754.676.312 1.283.65 1.82 1.014l-1.586 2.912Zm13.249 12.922c-.295.121-.65.26-1.066.416a7.705 7.705 0 0 1-1.352.364 6.572 6.572 0 0 1-1.43.156 4.529 4.529 0 0 1-1.768-.338 2.892 2.892 0 0 1-1.3-1.066c-.312-.503-.468-1.153-.468-1.95v-7.826h-1.794v-2.678h1.794v-4.42h3.484v4.42h2.86v2.678h-2.86v6.656c.017.468.147.806.39 1.014.242.208.546.312.91.312s.719-.06 1.066-.182c.346-.121.624-.225.832-.312l.702 2.756Zm2.464-4.394v-8.528h3.484v7.774c0 1.04.19 1.829.572 2.366.381.52.945.78 1.69.78.45 0 .893-.087 1.326-.26a3.83 3.83 0 0 0 1.222-.832c.381-.364.702-.823.962-1.378v-8.45h3.484V21.1c0 .364.061.624.182.78.139.156.355.251.65.286V25a11.59 11.59 0 0 1-.884.104 4.113 4.113 0 0 1-.624.052c-.624 0-1.135-.139-1.534-.416a1.752 1.752 0 0 1-.676-1.196l-.078-1.092a6.067 6.067 0 0 1-2.34 2.106c-.953.468-2.002.702-3.146.702-1.404 0-2.47-.45-3.198-1.352-.728-.919-1.092-2.253-1.092-4.004Zm16.15-1.716c0-1.317.26-2.505.78-3.562.52-1.075 1.24-1.924 2.158-2.548.919-.624 1.968-.936 3.146-.936 1.006 0 1.907.251 2.704.754.815.485 1.448 1.11 1.898 1.872V6.02h3.484V21.1c0 .364.061.624.182.78.122.156.33.251.624.286V25c-.606.121-1.1.182-1.482.182-.624 0-1.144-.156-1.56-.468a1.72 1.72 0 0 1-.676-1.222l-.052-.858a5.05 5.05 0 0 1-2.054 1.95 5.634 5.634 0 0 1-2.678.676 6.188 6.188 0 0 1-2.6-.546 6.505 6.505 0 0 1-2.054-1.508 7.289 7.289 0 0 1-1.352-2.236 8.152 8.152 0 0 1-.468-2.782Zm10.686 1.82v-3.25a3.656 3.656 0 0 0-.832-1.352 4.39 4.39 0 0 0-1.274-.936 3.026 3.026 0 0 0-1.404-.364c-.537 0-1.022.113-1.456.338a3.86 3.86 0 0 0-1.144.91 4.284 4.284 0 0 0-.728 1.326 5.32 5.32 0 0 0-.234 1.586c0 .555.087 1.083.26 1.586a3.905 3.905 0 0 0 2.002 2.132c.468.208.971.312 1.508.312.33 0 .659-.052.988-.156.347-.121.668-.277.962-.468.312-.208.581-.45.806-.728.243-.295.425-.607.546-.936ZM123.081 25V11.376h3.484V25h-3.484Zm0-15.522V6.02h3.484v3.458h-3.484ZM136.78 25.26c-1.109 0-2.106-.182-2.99-.546a6.763 6.763 0 0 1-2.262-1.56 7.08 7.08 0 0 1-1.404-2.262 7.35 7.35 0 0 1-.494-2.678c0-.953.165-1.855.494-2.704a7.08 7.08 0 0 1 1.404-2.262 6.46 6.46 0 0 1 2.262-1.534c.884-.381 1.881-.572 2.99-.572 1.109 0 2.097.19 2.964.572a6.46 6.46 0 0 1 2.262 1.534 6.53 6.53 0 0 1 1.404 2.262c.329.85.494 1.75.494 2.704a7.35 7.35 0 0 1-.494 2.678 6.53 6.53 0 0 1-1.404 2.262 6.49 6.49 0 0 1-2.236 1.56c-.884.364-1.881.546-2.99.546Zm-3.562-7.046c0 .797.156 1.508.468 2.132a3.649 3.649 0 0 0 1.274 1.43 3.28 3.28 0 0 0 1.82.52c.659 0 1.257-.173 1.794-.52.537-.364.962-.85 1.274-1.456.329-.624.494-1.335.494-2.132 0-.78-.165-1.482-.494-2.106-.312-.624-.737-1.11-1.274-1.456a3.238 3.238 0 0 0-1.794-.52 3.17 3.17 0 0 0-1.82.546c-.537.347-.962.832-1.274 1.456-.312.607-.468 1.309-.468 2.106Z" fill="#000"/>
</svg>
